<?xml version="1.0" encoding="UTF-8"?>
<svg style="width: 182px" viewBox="0 0 182 31" version="1.1" xmlns="http://www.w3.org/2000/svg" xmlns:xlink="http://www.w3.org/1999/xlink">
    <defs>
        <linearGradient x1="49.9983638%" y1="0.001034994%" x2="49.9983638%" y2="99.9974711%" id="linearGradient-1">
            <stop stop-color="#2418D8" offset="3%"></stop>
            <stop stop-color="#4F42E5" offset="17%"></stop>
            <stop stop-color="#6D60EE" offset="29%"></stop>
            <stop stop-color="#786BF1" offset="36%"></stop>
        </linearGradient>
    </defs>
    <g id="Artboard" stroke="none" stroke-width="1" fill="none" fill-rule="evenodd">
        <g id="ComeHome_PrimaryLogo_" transform="translate(34.000000, 8.000000)" fill="#20203F" fill-rule="nonzero">
            <path d="M11.890625,9.64708861 C11.2981771,8.14936709 9.90060764,7.17721519 8.07769097,7.13772152 C6.92871342,7.10947411 5.81785302,7.55070842 5.00143961,8.3596101 C4.1850262,9.16851178 3.73359096,10.2751986 3.75130208,11.4243038 C3.75130208,13.9427848 5.44965278,15.7382278 7.96527778,15.7382278 C9.84288194,15.7382278 11.2860243,14.756962 11.890625,13.2258228 L15.3541667,13.2258228 C14.6614583,16.6040506 11.8328993,18.9432911 7.97743056,18.9432911 C3.47482639,18.9432911 0.296875,15.7686076 0.296875,11.4364557 C0.296875,7.1043038 3.47482639,3.93265823 7.97743056,3.93265823 C11.8450521,3.93265823 14.6614583,6.26886076 15.3663194,9.64708861 L11.890625,9.64708861 Z" ></path>
            <path d="M23.9856771,18.9432911 C19.4830729,18.9432911 16.3081597,15.7686076 16.3081597,11.4364557 C16.3081597,7.1043038 19.4830729,3.93265823 23.9856771,3.93265823 C28.4882812,3.93265823 31.6753472,7.10734177 31.6753472,11.4364557 C31.6753472,15.7655696 28.4913194,18.9432911 23.9856771,18.9432911 Z M28.1692708,11.6521519 C28.2664931,9.03949367 26.5833333,7.15291139 24.0221354,7.13772152 C21.7415029,7.1703314 19.879105,8.97007581 19.7686632,11.2481013 C19.6805556,13.8486076 21.3940972,15.723038 23.9522569,15.7382278 C26.2141478,15.6978161 28.0577183,13.9114883 28.1692708,11.6521519 L28.1692708,11.6521519 Z" ></path>
            <path d="M42.4032118,18.5696203 L42.4032118,10.4278481 C42.4032118,8.11898734 41.1636285,7.13468354 39.5169271,7.13468354 C37.8702257,7.13468354 36.6306424,8.08860759 36.6306424,10.4278481 L36.6306424,18.5696203 L33.1944444,18.5696203 L33.1944444,10.4278481 C33.1944444,5.95291139 35.7921007,3.93265823 39.1705729,3.93265823 C41.297309,3.93265823 43.0381944,4.82582278 44.0772569,6.44202532 L44.1319444,6.44202532 C45.1436632,4.82582278 46.8663194,3.93265823 49.0416667,3.93265823 C52.4201389,3.93265823 55.0177951,5.95291139 55.0177951,10.4278481 L55.0177951,18.5696203 L51.5846354,18.5696203 L51.5846354,10.4278481 C51.5846354,8.08860759 50.3693576,7.13468354 48.6983507,7.13468354 C47.0273437,7.13468354 45.8394097,8.11898734 45.8394097,10.4278481 L45.8394097,18.5696203 L42.4032118,18.5696203 Z" ></path>
            <path d="M60.1584201,12.6486076 L60.1584201,12.7063291 C60.6202257,14.6202532 62.0907118,15.835443 64.2265625,15.835443 C65.7456597,15.835443 66.8849826,15.4010127 67.6050347,14.4774684 L71.2721354,14.4774684 C70.202691,17.1903797 67.6050347,18.9524051 64.2265625,18.9524051 C59.7239583,18.9524051 56.5490451,15.7777215 56.5490451,11.4455696 C56.5490451,7.11341772 59.7239583,3.94177215 64.2265625,3.94177215 C68.7291667,3.94177215 71.8493924,7.1164557 71.8493924,11.4455696 L71.8493924,12.6607595 L60.1584201,12.6486076 Z M60.234375,9.85063291 L60.234375,9.90835443 L68.203559,9.90835443 L68.203559,9.85063291 C67.6536458,8.11898734 66.2105035,7.04962025 64.2174479,7.04962025 C62.2243924,7.04962025 60.7934028,8.11898734 60.234375,9.85063291 Z" ></path>
            <path d="M77.2756076,18.5696203 L73.8394097,18.5696203 L73.8394097,0.00759493671 L77.2756076,0.00759493671 L77.2756076,6.21113924 L77.3333333,6.21113924 C78.2167279,4.75320319 79.8159133,3.88288222 81.5199653,3.93265823 C84.8103299,3.93265823 87.9275174,6.05924051 87.9275174,11.1478481 L87.9275174,18.5696203 L84.4943576,18.5696203 L84.4943576,11.1478481 C84.4943576,8.43493671 83.0512153,7.13468354 80.8849826,7.13468354 C78.7764757,7.13468354 77.2756076,8.49265823 77.2756076,11.1478481 L77.2756076,18.5696203 Z" ></path>
            <path d="M97.1362847,18.9432911 C92.6336806,18.9432911 89.4587674,15.7686076 89.4587674,11.4364557 C89.4587674,7.1043038 92.6336806,3.93265823 97.1362847,3.93265823 C101.638889,3.93265823 104.81684,7.10734177 104.81684,11.4364557 C104.81684,15.7655696 101.641927,18.9432911 97.1362847,18.9432911 Z M101.319878,11.6521519 C101.417101,9.03949367 99.733941,7.15291139 97.1727431,7.13772152 C94.8921106,7.1703314 93.0297126,8.97007581 92.9192708,11.2481013 C92.8311632,13.8486076 94.5447049,15.723038 97.1028646,15.7382278 C99.3647554,15.6978161 101.208326,13.9114883 101.319878,11.6521519 L101.319878,11.6521519 Z" ></path>
            <path d="M115.553819,18.5696203 L115.553819,10.4278481 C115.553819,8.11898734 114.314236,7.13468354 112.667535,7.13468354 C111.020833,7.13468354 109.78125,8.08860759 109.78125,10.4278481 L109.78125,18.5696203 L106.345052,18.5696203 L106.345052,10.4278481 C106.345052,5.95291139 108.942708,3.93265823 112.321181,3.93265823 C114.447917,3.93265823 116.188802,4.82582278 117.227865,6.44202532 L117.28559,6.44202532 C118.297309,4.82582278 120.019965,3.93265823 122.195312,3.93265823 C125.573785,3.93265823 128.171441,5.95291139 128.171441,10.4278481 L128.171441,18.5696203 L124.735243,18.5696203 L124.735243,10.4278481 C124.735243,8.08860759 123.519965,7.13468354 121.848958,7.13468354 C120.177951,7.13468354 118.990017,8.11898734 118.990017,10.4278481 L118.990017,18.5696203 L115.553819,18.5696203 Z" ></path>
            <path d="M133.309028,12.6486076 L133.309028,12.7063291 C133.758681,14.6202532 135.241319,15.835443 137.37717,15.835443 C138.896267,15.835443 140.03559,15.4010127 140.755642,14.4774684 L144.422743,14.4774684 C143.353299,17.1903797 140.755642,18.9524051 137.37717,18.9524051 C132.874566,18.9524051 129.699653,15.7777215 129.699653,11.4455696 C129.699653,7.11341772 132.874566,3.94177215 137.37717,3.94177215 C141.879774,3.94177215 145,7.10734177 145,11.4364557 L145,12.6516456 L133.309028,12.6486076 Z M133.394097,9.85063291 L133.394097,9.90835443 L141.354167,9.90835443 L141.354167,9.85063291 C140.804253,8.11898734 139.361111,7.04962025 137.368056,7.04962025 C135.375,7.04962025 133.94401,8.11898734 133.394097,9.85063291 Z" ></path>
        </g>
        <g id="Asset-9-Copy-2" transform="translate(3.000000, 3.000000)" fill-rule="nonzero">
            <path d="M19.8031088,9.84811744 L13.358791,3.40694301 C12.9542544,3.00255283 12.2985263,3.00255283 11.8939896,3.40694301 L11.8939896,3.40694301 C11.6996535,3.60123039 11.5904725,3.86476989 11.5904725,4.13956822 C11.5904725,4.41436655 11.6996535,4.67790606 11.8939896,4.87219344 L19.6176511,12.5922625 C19.7368462,12.7112837 19.8037422,12.8728684 19.8035579,13.0413126 L19.8035579,18.1604836 C19.802815,18.5098903 19.5193557,18.7927469 19.1699482,18.7927461 L9.18891192,18.7927461 C8.61676781,18.7927461 8.15295337,19.2565606 8.15295337,19.8287047 L8.15295337,19.8287047 C8.15295337,20.4008488 8.61676781,20.8646632 9.18891192,20.8646632 L20.9023834,20.8646632 C21.4393838,20.8649114 21.8749792,20.4299191 21.875475,19.8929188 L21.875475,12.318342 C21.8753964,12.0631504 21.7739585,11.8184395 21.5934715,11.6380311 L19.8031088,9.84811744 Z"  fill="url(#linearGradient-1)"></path>
            <path d="M6.36708117,24.7287392 L23.391468,24.7287392 C24.0783649,24.7287394 24.7371019,24.4557478 25.2226429,23.96987 C25.7081838,23.4839922 25.9807184,22.8250659 25.9802418,22.1381693 L25.9802418,11.188532 C25.9802892,10.495259 25.7020259,9.83098626 25.2078756,9.3447323 L16.3647323,0.643937824 C15.5545267,-0.153477193 14.2549273,-0.15507498 13.4427634,0.640345423 L4.55561313,9.3438342 C4.05881283,9.8303226 3.77880745,10.496347 3.77875648,11.1916753 L3.77875648,22.1381693 C3.77827992,22.8249881 4.05075291,23.4838463 4.53619669,23.9697112 C5.02164048,24.4555761 5.68026217,24.7286202 6.36708117,24.7287392 L6.36708117,24.7287392 Z M14.9053195,2.14151986 L16.6929879,3.89595855 L20.324456,7.45962003 L23.2127461,10.2935751 C23.5755786,10.6496718 23.8647668,10.9496373 23.875544,11.5060104 C23.9141623,13.5500864 23.8656649,15.6071848 23.8656649,17.6548532 L23.8656649,21.5220725 C23.8657841,21.8225092 23.7465196,22.1106814 23.5341209,22.3231643 C23.3217222,22.5356472 23.0335973,22.6550259 22.7331606,22.6550259 L7.0164076,22.6550259 C6.71565936,22.6550265 6.42726167,22.5354013 6.21481125,22.3225296 C6.00236084,22.109658 5.88330703,21.821024 5.88390328,21.5202763 L5.89063903,17.9588601 C5.89063903,15.9929188 5.93554404,14.0179965 5.89557858,12.0547496 C5.89153713,11.8670466 5.87582038,11.6797927 5.88435233,11.4920898 C5.91398964,10.812677 6.4757513,10.4143696 6.92569948,9.97160622 L8.37478411,8.54946459 L12.112677,4.88162349 L14.9053195,2.14151986 Z"  fill="#5646EE"></path>
            <path d="M9.33350604,0.956027634 C8.92069993,0.543236082 8.25142442,0.543236082 7.83861831,0.956027634 L2.11412781,6.64145078 L0.756200345,7.99892919 C0.271939891,8.48315226 -8.17395974e-05,9.13994558 4.46148585e-16,9.82476684 L4.46148585e-16,19.6234888 C4.65744888e-16,20.207289 0.47326363,20.6805527 1.0570639,20.6805527 L1.0570639,20.6805527 C1.64086418,20.6805527 2.11412781,20.207289 2.11412781,19.6234888 L2.11412781,10.1642487 C2.114144,9.8228172 2.24983369,9.49538504 2.49132988,9.25402418 L9.33350604,2.45091537 C9.7462976,2.03810926 9.7462976,1.36883375 9.33350604,0.956027634 Z"  fill="#776BEF"></path>
            <path d="M14.9210363,10.8715026 L14.2056995,10.0982383 C14.0229285,9.91342548 13.7740283,9.80909013 13.5141044,9.80833159 C13.2541804,9.80757306 13.0046756,9.91045393 12.820829,10.0941969 L12.820829,10.0941969 C12.6365305,10.2785862 12.5335986,10.5290041 12.534948,10.7897022 C12.5362975,11.0504003 12.6418163,11.2997392 12.8280138,11.4822107 L14.0179965,12.6497409 L15.671848,14.2856304 C15.6946076,14.3085486 15.7073629,14.3395487 15.707323,14.371848 L15.707323,15.0310535 C15.707323,15.0984111 15.6076339,15.1531952 15.5402763,15.1531952 L10.7507081,15.1082902 C10.2113005,15.1082902 9.77402418,15.5455664 9.77402418,16.0849741 L9.77402418,16.0265976 C9.77402418,16.5660052 10.2113005,17.0032815 10.7507081,17.0032815 L17.0742314,17.0032815 C17.4377021,17.0032819 17.7324924,16.7088935 17.7329879,16.3454231 L17.7329879,13.8464594 C17.7330201,13.6685766 17.6609171,13.4982841 17.5331606,13.3745078 L14.9210363,10.8715026 Z"  fill="#ADA5F6"></path>
        </g>
    </g>
</svg>
